<svg xmlns="http://www.w3.org/2000/svg" width="400" height="457.143" fill-rule="evenodd" xmlns:v="https://vecta.io/nano"><path d="M18 188.81l.095 170.144 90.954 39.562 90.954 39.562 90.951-39.563 90.951-39.562L382 188.81l.096-170.143H200 17.904L18 188.81m344.278 3.476l-.007 154.19-80.85 35.144L200 416.763c-.314 0-36.954-15.814-81.421-35.143l-80.85-35.144-.007-154.19-.008-154.191H200h162.286l-.008 154.191" fill="#fcfcfc"/><path d="M61.714 69.905v11.238h8 8v53.524l.476 53.525c.262 0 6.005-1.324 12.762-2.944l12.286-2.944v-50.581-50.58h8.191 8.19V69.905 58.667H90.667 61.714v11.238m68.046-10.844c-1.562.467-2.719 1.683-3.639 3.821l-.798 1.855.1 53.06.101 53.06 1.062 1.808c1.074 1.826 2.626 2.954 4.067 2.954.599 0 38.528-9.332 46.585-11.461l1.429-.378v-11.033c0-6.147-.15-11.033-.338-11.033s-6.287 1.458-13.559 3.239-13.377 3.143-13.567 3.025-.346-5.28-.346-11.81v-11.597h11.048 11.047v-11.238-11.238h-11.053-11.054l.101-10.381.102-10.381 13.809-.1 13.81-.1V69.9 58.667l-23.905.032-25.002.362m60.199-.008c-1.567.478-2.516 1.447-3.533 3.614l-.895 1.904-.003 48.096.472 48.086c.262-.005 5.962-1.423 12.667-3.152l12.19-3.142.1-13.23.1-13.229h3.615 3.614v12.425c0 11.645.042 12.415.666 12.255l12.762-3.181 12.096-3.011v-39.892c0-45.778.117-44.223-3.552-46.942-1.159-.859-47.631-1.414-50.299-.601m60.327 42.661l.476 42.273c.262-.007 5.962-1.44 12.667-3.184l12.19-3.172.191-12.72.19-12.721.801 2.096c.441 1.152 2.241 6.251 4 11.332 2.277 6.573 3.364 9.233 3.77 9.226.733-.012 17.116-4.011 17.27-4.215.063-.084 1.561-4.253 3.328-9.265l3.212-9.113.103 8.256c.056 4.54.177 8.255.269 8.255.218 0 23.809-5.684 24.676-5.946.628-.189.666-2.036.666-31.794V59.429h-13.126-13.127l-4.62 14.19-7.702 23.665c-2.402 7.383-3.173 9.346-3.492 8.892-.225-.321-3.752-10.967-7.838-23.658l-7.428-23.074-13.238-.008-13.238-.007v42.285m-32.232-19.969c.128.332.232 5.818.232 12.191v11.588h-3.619-3.619V93.587c0-6.565.114-12.05.254-12.19.58-.581 6.513-.275 6.752.348m-20.659 86.08l-135.53 35.326c-.089.089-.117 5.303-.061 11.585l.101 11.424 7.047-1.974 7.905-2.248.857-.275v30.311 30.312h12.76 12.76l.097-33.197.098-33.196 113.714-30.183 115.333-30.628 1.619-.445v-11.033c0-10.27-.046-11.029-.666-10.988-.367.025-61.582 15.869-136.034 35.209m124.986-.684l-11.524 2.865v25.918l-.158 25.759c-.086-.088-2.838-10.702-6.115-23.588l-6.096-23.853c-.092-.28-3.909.491-11.2 2.263l-11.061 2.688-.194 1.927c-.107 1.06-.376 23.356-.599 49.547l-.589 49.619-.185 2h11.809 11.81l.099-19.712.098-19.712 4.124 13.14 6.21 19.712 2.086 6.572h11.79 11.79v-59.048l-.286-59.005c-.157.024-5.471 1.332-11.809 2.908m-63.333 17.516l-11.383 3.374c-.079.072-1.395 10.61-2.924 23.419-2.393 20.05-3.249 26.181-3.208 22.994.011-.879-3.517-43.358-3.612-43.485-.101-.134-14.73 4.009-14.957 4.236-.109.109-1.328 9.248-2.71 20.31-1.822 14.589-2.589 19.746-2.793 18.78-.155-.733-1.167-9.218-2.249-18.856l-2.132-17.702c-.132-.141-15.648 3.568-20.907 4.998l-1.161.316 5.542 39.621 5.541 39.621 11.476.001 11.475.002.178-1.81c.32-3.256 4.234-25.619 4.484-25.619.262 0 4.6 25.139 4.586 26.577l-.008.863 11.516-.101 11.515-.101 6.732-48.381 6.74-52.341c-.277.022-5.56 1.499-11.741 3.284m-105.524 28.131l-23.492 5.877c-.852.004-3.433 3.408-4.063 5.36-.568 1.757-.635 4.684-.632 27.352l.004 25.385.928 1.993c1.757 3.774-.213 3.528 28.273 3.529l24.828.002 1.189-1.001c.654-.55 1.567-1.707 2.029-2.571l.841-1.571.119-31.429c.135-35.333.189-34.497-2.374-37.171-2.232-2.33-1.291-2.474-27.65 4.245m4.099 34.545l-.099 16.096h-3.238-3.238v-15.23-15.23l2.857-.823c1.571-.454 3.073-.843 3.337-.866.381-.033.46 3.287.381 16.053" fill="#e02f44"/><path d="M9.619 187.136l.095 178.375 94.832 41.244L200 448c.342 0 43.297-18.56 95.454-41.245l94.832-41.244.095-178.375.096-178.374H200 9.523l.096 178.374M382 188.81l-.095 170.143-90.951 39.562-90.951 39.563-90.954-39.562-90.954-39.562L18 188.81l-.096-170.143H200h182.096L382 188.81m-344.278 3.476l.007 154.19 80.85 35.144L200 416.763c.314 0 36.954-15.814 81.421-35.143l80.85-35.144.007-154.19.008-154.191H200 37.714l.008 154.191m81.897-122.381v11.238h-8.19-8.191v50.58 50.581l-12.286 2.944-12.762 2.944c-.378-.001-.476-10.961-.476-53.525V81.143h-8-8V69.905 58.667h28.953 28.952v11.238m59.048-.005v11.233l-13.81.1-13.809.1-.102 10.381-.101 10.381h11.054 11.053v11.238 11.238h-11.047-11.048v11.597c0 6.53.151 11.69.346 11.81s6.295-1.244 13.567-3.025l13.559-3.239c.188 0 .338 4.886.338 11.033v11.033l-1.429.378c-8.057 2.129-45.986 11.461-46.585 11.461-1.441 0-2.993-1.128-4.067-2.954l-1.062-1.808-.101-53.06-.1-53.06.798-1.855c1.859-4.322.645-4.144 28.641-4.183l23.905-.032V69.9m61.591-10.246c3.669 2.719 3.552 1.164 3.552 46.942v39.892l-12.096 3.011-12.762 3.181c-.624.16-.666-.61-.666-12.255V128h-3.614-3.615l-.1 13.229-.1 13.23-12.19 3.142L186 160.753c-.379.007-.475-9.857-.472-48.086l.003-48.096.895-1.904c1.942-4.136.622-3.957 28.689-3.878 23.77.067 24.081.078 25.143.865m43.932 22.864l7.838 23.658c.319.454 1.09-1.509 3.492-8.892l7.702-23.665 4.62-14.19h13.127 13.126v31.593c0 29.758-.038 31.605-.666 31.794-.867.262-24.458 5.946-24.676 5.946-.092 0-.213-3.715-.269-8.255l-.103-8.256-3.212 9.113-3.328 9.265c-.154.204-16.537 4.203-17.27 4.215-.406.007-1.493-2.653-3.77-9.226l-4-11.332-.801-2.096-.19 12.721-.191 12.72-12.19 3.172-12.667 3.184c-.378.01-.476-8.691-.476-42.273V59.429l13.238.007 13.238.008 7.428 23.074m-72.888-1.121c-.14.14-.254 5.625-.254 12.19v11.937h3.619 3.619V93.936c0-6.373-.104-11.859-.232-12.191-.239-.623-6.172-.929-6.752-.348m122.793 62.207v11.033l-1.619.445-115.333 30.628-113.714 30.183-.098 33.196-.097 33.197h-12.76-12.76v-30.312-30.311l-.857.275c-.471.151-4.028 1.163-7.905 2.248l-7.047 1.974-.101-11.424.061-11.585c.22-.22 270.72-70.478 271.564-70.535.62-.041.666.718.666 10.988m.381 79.634v59.048h-11.79-11.79l-2.086-6.572-6.21-19.712-4.124-13.14-.098 19.712-.099 19.712h-11.81-11.809l.185-2c.101-1.1.366-23.429.589-49.619l.599-49.547.194-1.927 11.061-2.688c7.291-1.772 11.108-2.543 11.2-2.263.076.234 2.82 10.968 6.096 23.853l6.115 23.588c.087.087.158-11.505.158-25.759v-25.918l11.524-2.865 11.809-2.908c.158-.023.286 26.529.286 59.005m-63.439-39.905l-6.988 50.381-6.732 48.381-11.515.101-11.516.101.008-.863c.014-1.438-4.324-26.577-4.586-26.577-.25 0-4.164 22.363-4.484 25.619l-.178 1.81-11.475-.002-11.476-.001-5.541-39.621-5.542-39.621 1.161-.316c5.259-1.43 20.775-5.139 20.907-4.998.091.098 1.05 8.063 2.132 17.702l2.249 18.856c.204.966.971-4.191 2.793-18.78l2.71-20.31c.227-.227 14.856-4.37 14.957-4.236.095.127 3.623 42.606 3.612 43.485-.041 3.187.815-2.944 3.208-22.994l2.924-23.419c.206-.186 22.518-6.611 23.124-6.658.389-.031.445.419.248 1.96m-89.863 25.21c2.563 2.674 2.509 1.838 2.374 37.171l-.119 31.429-.841 1.571c-.462.864-1.375 2.021-2.029 2.571l-1.189 1.001-24.828-.002c-28.486-.001-26.516.245-28.273-3.529l-.928-1.993-.004-25.385c-.003-22.668.064-25.595.632-27.352.63-1.952 3.211-5.356 4.063-5.36.244-.002 10.816-2.646 23.492-5.877 26.359-6.719 25.418-6.575 27.65-4.245m-27.269 23.603l-2.857.823v15.23 15.23h3.238 3.238l.099-16.096c.079-12.766 0-16.086-.381-16.053-.264.023-1.766.412-3.337.866m-51.81 66.324v4.756l-10.952.101-10.953.102-.113 2.381-.113 2.38h9.363c13.788 0 12.768-1.034 12.768 12.953 0 14.448 2.528 12.952-21.892 12.952H61.714v-4.762-4.762l10.572-.005c12.126-.007 11.604.124 11.449-2.887l-.116-2.25-9.97-.191c-9.906-.189-9.976-.196-10.952-1.114l-.983-.923v-10.757-10.757l1.172-.986 1.172-.987h19.019 19.018v4.756m45.75-4.166c1.768.914 1.869 1.688 1.869 14.267 0 16.252 1.267 14.858-13.505 14.858h-10.495v5.333 5.333h-9.143-9.142v-20.19-20.191h19.638c16.98 0 19.792.08 20.778.59m47.994.524l1.113 1.113v17.769c0 19.205.027 18.952-2.113 19.846-1.903.795-36.156.795-38.059 0-2.14-.894-2.113-.641-2.113-19.846v-17.769l1.113-1.113 1.114-1.114h18.916 18.915l1.114 1.114m46.8-.556c.593.306 1.185.834 1.315 1.174.414 1.08.27 25.304-.156 26.099-.471.881-2.302 1.884-3.439 1.884-.511 0-.745.18-.62.476.858 2.026 4.071 9.973 4.071 10.069 0 .067-3.582.121-7.96.121h-7.959l-1.026-2.571c-3.369-8.448-3.16-8.095-4.805-8.095h-1.489v5.333 5.333h-9.333-9.333v-20.19-20.191h19.828c16.658 0 20.001.089 20.906.558m47.647 4.204v4.762h-6.096-6.095v15.429 15.428h-9.138-9.139l-.099-15.333-.1-15.333-6-.105-6-.105v-4.752-4.753h21.333 21.334v4.762m43.809 0v4.762h-11.047H312v2.476 2.476h9.309c13.813 0 12.786-1.026 12.786 12.787 0 14.648 2.575 13.118-22.083 13.118h-18.679v-4.756-4.756l10.953-.101 10.952-.101.113-2.571.112-2.572h-9.523c-10.283 0-11.121-.136-12.064-1.96-.759-1.469-.769-20.249-.011-21.617 1.067-1.926.992-1.919 21.278-1.933l18.952-.014v4.762m-208.381 10.095v5.334h2.667 2.667v-5.334-5.333h-2.667-2.667v5.333m47.709 5.239l.101 10.571h2.286 2.285l.102-10.571.101-10.572h-2.488-2.489l.102 10.572m47.148-5.239v5.369l2.572-.113 2.571-.113v-5.143-5.142l-2.571-.113-2.572-.113v5.368" fill="#cfd4d3"/><path d="M62.886 294.701l-1.172.986v10.757 10.757l.983.923c.976.918 1.046.925 10.952 1.114l9.97.191.116 2.25c.155 3.011.677 2.88-11.449 2.887l-10.572.005v4.762 4.762h18.489c24.42 0 21.892 1.496 21.892-12.952 0-13.987 1.02-12.953-12.768-12.953h-9.363l.113-2.38.113-2.381 10.953-.102 10.952-.101v-4.756-4.756H83.077 64.058l-1.172.987m44.543 19.204v20.19h9.142 9.143v-5.333-5.333h10.495c14.772 0 13.505 1.394 13.505-14.858 0-6.566-.161-12.183-.364-12.718-.81-2.13-.899-2.139-22.283-2.139h-19.638v20.191m48.351-19.077l-1.113 1.113v17.769c0 19.205-.027 18.952 2.113 19.846 1.903.795 36.156.795 38.059 0 2.14-.894 2.113-.641 2.113-19.846v-17.769l-1.113-1.113-1.114-1.114H175.81h-18.916l-1.114 1.114m46.125 19.077v20.19h9.333 9.333v-5.333-5.333h1.489c1.645 0 1.436-.353 4.805 8.095l1.026 2.571h7.959c4.378 0 7.96-.054 7.96-.121 0-.096-3.213-8.043-4.071-10.069-.125-.296.109-.476.62-.476 1.137 0 2.968-1.003 3.439-1.884.426-.795.57-25.019.156-26.099-.645-1.68-1.304-1.732-22.221-1.732h-19.828v20.191m45.714-15.438v4.752l6 .105 6 .105.1 15.333.099 15.333h9.139 9.138v-15.428-15.429h6.095 6.096v-4.762-4.762h-21.334-21.333v4.753m47.661-4.221c-1.815 1.006-1.919 1.658-1.933 12.154-.019 13.816-.979 12.838 12.593 12.838h9.523l-.112 2.572-.113 2.571-10.952.101-10.953.101v4.756 4.756h18.679c24.658 0 22.083 1.53 22.083-13.118 0-13.813 1.027-12.787-12.786-12.787H312v-2.476-2.476h11.048 11.047v-4.762-4.762l-18.952.014c-14.999.01-19.142.119-19.863.518m-164.232 14.325v5.334h-2.667-2.667v-5.334-5.333h2.667 2.667v5.333m47.149 5.239l-.102 10.571h-2.285-2.286l-.101-10.571-.102-10.572h2.489 2.488l-.101 10.572m47.517-5.239v5.143l-2.571.113-2.572.113v-5.369-5.368l2.572.113 2.571.113v5.142" fill="#2b2926"/></svg>